<svg width="14" height="14" viewBox="0 0 14 14" fill="none" xmlns="http://www.w3.org/2000/svg">
<path d="M6.57349 0.5C5.28791 0.5 4.0312 0.881218 2.96228 1.59545C1.89336 2.30968 1.06024 3.32484 0.568272 4.51256C0.0763027 5.70028 -0.052419 7.00721 0.198385 8.26809C0.449189 9.52896 1.06825 10.6872 1.9773 11.5962C2.88634 12.5052 4.04453 13.1243 5.3054 13.3751C6.56628 13.6259 7.87321 13.4972 9.06093 13.0052C10.2487 12.5132 11.2638 11.6801 11.978 10.6112C12.6923 9.54229 13.0735 8.28558 13.0735 7C13.0717 5.27665 12.3863 3.62441 11.1677 2.40582C9.94908 1.18722 8.29684 0.50182 6.57349 0.5ZM9.42724 5.85375L5.92724 9.35375C5.8808 9.40024 5.82566 9.43712 5.76496 9.46228C5.70426 9.48744 5.6392 9.50039 5.57349 9.50039C5.50778 9.50039 5.44272 9.48744 5.38202 9.46228C5.32132 9.43712 5.26618 9.40024 5.21974 9.35375L3.71974 7.85375C3.62592 7.75993 3.57321 7.63268 3.57321 7.5C3.57321 7.36732 3.62592 7.24007 3.71974 7.14625C3.81356 7.05243 3.94081 6.99972 4.07349 6.99972C4.20617 6.99972 4.33342 7.05243 4.42724 7.14625L5.57349 8.29313L8.71974 5.14625C8.76619 5.09979 8.82134 5.06294 8.88204 5.0378C8.94274 5.01266 9.00779 4.99972 9.07349 4.99972C9.13919 4.99972 9.20424 5.01266 9.26494 5.0378C9.32563 5.06294 9.38078 5.09979 9.42724 5.14625C9.47369 5.1927 9.51054 5.24786 9.53569 5.30855C9.56083 5.36925 9.57377 5.4343 9.57377 5.5C9.57377 5.5657 9.56083 5.63075 9.53569 5.69145C9.51054 5.75214 9.47369 5.8073 9.42724 5.85375Z" fill="white" fill-opacity="0.8"/>
</svg>
