<svg width="41" height="32" viewBox="0 0 41 32" fill="none" xmlns="http://www.w3.org/2000/svg">
<g clip-path="url(#clip0_5_952)">
<path d="M16.321 14.5888C17.4973 10.1986 18.0855 8.00348 19.8148 7.00506C21.5441 6.00665 23.7392 6.59482 28.1294 7.77117C32.5196 8.9475 34.7147 9.53569 35.7132 11.265C36.7115 12.9943 36.1233 15.1894 34.947 19.5796C33.7707 23.9697 33.1825 26.1649 31.4532 27.1633C29.7239 28.1617 27.5287 27.5735 23.1386 26.3972C18.7484 25.2208 16.5533 24.6327 15.5549 22.9034C14.5565 21.174 15.1447 18.9789 16.321 14.5888Z" fill="#F5FBFF" stroke="#00A1FB" stroke-width="1.52235"/>
</g>
<g clip-path="url(#clip1_5_952)">
<path d="M6.54998 18.1264C5.19599 13.7877 4.519 11.6183 5.44622 9.84983C6.37346 8.08134 8.5428 7.40435 12.8815 6.05036C17.2202 4.69638 19.3895 4.01938 21.1581 4.94659C22.9265 5.87384 23.6035 8.04319 24.9575 12.3819C26.3115 16.7205 26.9885 18.8899 26.0613 20.6584C25.134 22.4269 22.9646 23.1039 18.626 24.4579C14.2873 25.8119 12.118 26.4889 10.3495 25.5617C8.58096 24.6344 7.90396 22.465 6.54998 18.1264Z" fill="#F5FBFF" stroke="#00A1FB" stroke-width="1.52235"/>
<path d="M11.6937 26.0897C14.3501 19.7057 17.0155 11.5476 25.422 13.8768" stroke="#00A1FB" stroke-width="1.52235"/>
<path d="M10.4911 13.7079C11.2937 13.4574 11.7413 12.6037 11.4908 11.8011C11.2404 10.9986 10.3867 10.551 9.58409 10.8014C8.78149 11.0519 8.3339 11.9056 8.58437 12.7082C8.83484 13.5108 9.68852 13.9584 10.4911 13.7079Z" stroke="#00A1FB" stroke-width="1.52235" stroke-linecap="round" stroke-linejoin="round"/>
</g>
<defs>
<clipPath id="clip0_5_952">
<rect width="24.3575" height="24.3575" fill="white" transform="translate(17.0215 2.16827) rotate(15)"/>
</clipPath>
<clipPath id="clip1_5_952">
<rect width="24.3575" height="24.3575" fill="white" transform="translate(0.5 7.25623) rotate(-17.3317)"/>
</clipPath>
</defs>
</svg>
