<svg width="635" height="401" viewBox="0 0 635 401" fill="none" xmlns="http://www.w3.org/2000/svg">
<g filter="url(#filter0_i_902_122)">
<g clip-path="url(#clip0_902_122)">
<rect x="0.50293" y="0.502808" width="633.994" height="399.692" rx="31.5028" fill="#F5F7FC"/>
<path d="M-81.942 -96.4878V212.851C-81.942 219.111 -75.6256 223.397 -69.8081 221.084L-48.0914 212.449C-46.3885 211.772 -44.486 211.801 -42.8046 212.53L-16.4251 223.964C-14.1169 224.964 -11.4922 224.936 -9.20583 223.887L15.0075 212.775C16.8836 211.914 19.0469 211.939 20.9022 212.844L42.7694 223.507C45.4178 224.798 48.5349 224.688 51.0861 223.214L68.2857 213.274C70.2699 212.127 72.6943 212.042 74.7542 213.046L96.4638 223.632C98.95 224.845 101.86 224.826 104.331 223.583L125.26 213.048C127.268 212.037 129.643 212.07 131.623 213.135L142.671 219.079C148.573 222.255 155.729 217.98 155.729 211.277V-96.4878C155.729 -101.381 151.762 -105.348 146.869 -105.348H-73.0818C-77.9752 -105.348 -81.942 -101.381 -81.942 -96.4878Z" stroke="#E0E9FF" stroke-width="1.96893"/>
<path d="M523.534 208.224V517.563C523.534 523.823 529.85 528.109 535.667 525.796L557.384 517.161C559.087 516.484 560.99 516.513 562.671 517.242L589.051 528.676C591.359 529.676 593.983 529.648 596.27 528.599L620.483 517.487C622.359 516.626 624.522 516.651 626.378 517.556L648.245 528.219C650.893 529.51 654.011 529.4 656.562 527.926L673.761 517.986C675.745 516.839 678.17 516.754 680.23 517.758L701.939 528.344C704.426 529.557 707.335 529.538 709.806 528.295L730.735 517.76C732.744 516.749 735.119 516.782 737.099 517.847L748.146 523.791C754.049 526.967 761.205 522.692 761.205 515.989V208.224C761.205 203.331 757.238 199.364 752.344 199.364H532.394C527.5 199.364 523.534 203.331 523.534 208.224Z" stroke="#E0E9FF" stroke-width="1.96893"/>
<path d="M333.559 -156.032V153.306C333.559 159.567 339.875 163.853 345.693 161.539L367.41 152.904C369.112 152.227 371.015 152.256 372.696 152.985L399.076 164.419C401.384 165.42 404.009 165.392 406.295 164.342L430.508 153.23C432.385 152.369 434.548 152.394 436.403 153.299L458.27 163.962C460.919 165.253 464.036 165.144 466.587 163.669L483.787 153.729C485.771 152.583 488.195 152.497 490.255 153.502L511.965 164.088C514.451 165.3 517.361 165.282 519.832 164.038L540.761 153.504C542.769 152.493 545.144 152.525 547.124 153.59L558.172 159.535C564.074 162.711 571.23 158.435 571.23 151.732V-156.032C571.23 -160.926 567.263 -164.893 562.37 -164.893H342.419C337.526 -164.893 333.559 -160.926 333.559 -156.032Z" stroke="#E0E9FF" stroke-width="1.96893"/>
<path d="M109.191 267.389V576.727C109.191 582.988 115.507 587.274 121.325 584.961L143.041 576.326C144.744 575.649 146.647 575.678 148.328 576.406L174.708 587.84C177.016 588.841 179.641 588.813 181.927 587.764L206.14 576.651C208.016 575.79 210.18 575.816 212.035 576.72L233.902 587.383C236.551 588.675 239.668 588.565 242.219 587.091L259.419 577.151C261.403 576.004 263.827 575.919 265.887 576.923L287.597 587.509C290.083 588.721 292.993 588.703 295.463 587.459L316.392 576.925C318.401 575.914 320.776 575.946 322.756 577.012L333.803 582.956C339.706 586.132 346.862 581.857 346.862 575.153V267.389C346.862 262.495 342.895 258.529 338.002 258.529H118.051C113.158 258.529 109.191 262.495 109.191 267.389Z" stroke="#E0E9FF" stroke-width="1.96893"/>
<g filter="url(#filter1_d_902_122)">
<path d="M199.649 353.152V43.8139C199.649 39.4643 203.175 35.9382 207.525 35.9382H427.475C431.825 35.9382 435.351 39.4643 435.351 43.8139V351.578C435.351 357.536 428.99 361.337 423.744 358.514L412.696 352.57C410.433 351.352 407.719 351.315 405.424 352.47L384.494 363.005C382.298 364.11 379.712 364.127 377.502 363.049L355.792 352.463C353.438 351.315 350.667 351.413 348.4 352.723L331.2 362.663C328.932 363.974 326.161 364.071 323.807 362.923L301.94 352.26C299.82 351.226 297.347 351.197 295.203 352.181L270.99 363.294C268.958 364.226 266.625 364.251 264.573 363.362L238.193 351.928C236.272 351.095 234.097 351.062 232.151 351.836L210.435 360.471C205.263 362.527 199.649 358.717 199.649 353.152Z" fill="white" stroke="#E5EDFF" stroke-width="1.96893"/>
<g clip-path="url(#clip1_902_122)">
<rect x="298.877" y="53.6638" width="45.2853" height="45.2853" rx="22.6427" fill="#F5F7FC"/>
<path d="M348.486 106.069C348.486 106.443 348.337 106.802 348.073 107.066C347.808 107.33 347.45 107.479 347.076 107.479H307.603C307.229 107.479 306.87 107.33 306.606 107.066C306.341 106.802 306.193 106.443 306.193 106.069C306.193 105.695 306.341 105.337 306.606 105.072C306.87 104.808 307.229 104.659 307.603 104.659H347.076C347.45 104.659 347.808 104.808 348.073 105.072C348.337 105.337 348.486 105.695 348.486 106.069ZM307.655 86.7168C307.572 86.4211 307.587 86.1062 307.698 85.8199C307.81 85.5336 308.012 85.2916 308.274 85.1308L326.601 73.8527C326.823 73.7162 327.079 73.6439 327.339 73.6439C327.6 73.6439 327.856 73.7162 328.078 73.8527L346.404 85.1308C346.666 85.2914 346.869 85.5332 346.981 85.8194C347.092 86.1056 347.108 86.4205 347.024 86.7161C346.941 87.0118 346.763 87.2721 346.517 87.4573C346.272 87.6426 345.973 87.7427 345.666 87.7424H341.437V99.0204H344.256C344.63 99.0204 344.989 99.1689 345.253 99.4333C345.518 99.6977 345.666 100.056 345.666 100.43C345.666 100.804 345.518 101.163 345.253 101.427C344.989 101.691 344.63 101.84 344.256 101.84H310.422C310.048 101.84 309.69 101.691 309.425 101.427C309.161 101.163 309.012 100.804 309.012 100.43C309.012 100.056 309.161 99.6977 309.425 99.4333C309.69 99.1689 310.048 99.0204 310.422 99.0204H313.242V87.7424H309.012C308.705 87.7425 308.407 87.6424 308.162 87.4572C307.917 87.2721 307.739 87.0121 307.655 86.7168ZM330.159 97.6107C330.159 97.9846 330.307 98.3431 330.572 98.6075C330.836 98.8719 331.195 99.0204 331.569 99.0204C331.942 99.0204 332.301 98.8719 332.565 98.6075C332.83 98.3431 332.978 97.9846 332.978 97.6107V89.1521C332.978 88.7782 332.83 88.4196 332.565 88.1553C332.301 87.8909 331.942 87.7424 331.569 87.7424C331.195 87.7424 330.836 87.8909 330.572 88.1553C330.307 88.4196 330.159 88.7782 330.159 89.1521V97.6107ZM321.7 97.6107C321.7 97.9846 321.849 98.3431 322.113 98.6075C322.377 98.8719 322.736 99.0204 323.11 99.0204C323.484 99.0204 323.842 98.8719 324.107 98.6075C324.371 98.3431 324.52 97.9846 324.52 97.6107V89.1521C324.52 88.7782 324.371 88.4196 324.107 88.1553C323.842 87.8909 323.484 87.7424 323.11 87.7424C322.736 87.7424 322.377 87.8909 322.113 88.1553C321.849 88.4196 321.7 88.7782 321.7 89.1521V97.6107Z" fill="#00A1FB"/>
</g>
<rect x="289.799" y="114.701" width="63.4418" height="5.90678" rx="2.95339" fill="#F5F7FC"/>
<rect x="221.646" y="160.833" width="24.5084" height="5.90678" rx="2.95339" fill="#F5F7FC"/>
<rect x="254.06" y="160.833" width="63.4418" height="5.90678" rx="2.95339" fill="#E7EEFF"/>
<rect x="254.06" y="181.357" width="63.4418" height="5.90678" rx="2.95339" fill="#E7EEFF"/>
<rect x="254.06" y="201.88" width="63.4418" height="5.90678" rx="2.95339" fill="#E7EEFF"/>
<rect x="254.06" y="222.404" width="63.4418" height="5.90678" rx="2.95339" fill="#E7EEFF"/>
<rect x="254.06" y="242.928" width="63.4418" height="5.90678" rx="2.95339" fill="#E7EEFF"/>
<rect x="254.06" y="263.452" width="63.4418" height="5.90678" rx="2.95339" fill="#E7EEFF"/>
<rect x="221.646" y="181.357" width="24.5084" height="5.90678" rx="2.95339" fill="#F5F7FC"/>
<rect x="221.646" y="201.88" width="24.5084" height="5.90678" rx="2.95339" fill="#F5F7FC"/>
<rect x="221.646" y="222.404" width="24.5084" height="5.90678" rx="2.95339" fill="#F5F7FC"/>
<rect x="221.646" y="242.928" width="24.5084" height="5.90678" rx="2.95339" fill="#F5F7FC"/>
<rect x="221.646" y="263.452" width="24.5084" height="5.90678" rx="2.95339" fill="#F5F7FC"/>
<g clip-path="url(#clip2_902_122)">
<path d="M355.173 222.426C358.344 210.592 359.929 204.675 364.591 201.984C369.252 199.293 375.169 200.878 387.003 204.049C398.837 207.22 404.754 208.805 407.445 213.467C410.136 218.128 408.551 224.045 405.38 235.879C402.209 247.712 400.623 253.629 395.962 256.321C391.301 259.012 385.384 257.427 373.55 254.256C361.716 251.085 355.799 249.499 353.108 244.838C350.417 240.177 352.002 234.26 355.173 222.426Z" fill="#F5FBFF" stroke="#00A1FB" stroke-width="1.88275"/>
</g>
<g clip-path="url(#clip3_902_122)">
<path d="M355.466 189.157C351.816 177.462 349.991 171.614 352.491 166.847C354.99 162.08 360.838 160.255 372.533 156.606C384.228 152.956 390.075 151.131 394.842 153.63C399.609 156.13 401.434 161.977 405.084 173.672C408.733 185.367 410.558 191.215 408.059 195.982C405.56 200.749 399.712 202.574 388.017 206.224C376.322 209.873 370.474 211.698 365.707 209.199C360.94 206.699 359.116 200.852 355.466 189.157Z" fill="#F5FBFF" stroke="#00A1FB" stroke-width="1.88275"/>
<path d="M369.33 210.622C376.491 193.414 383.675 171.423 406.335 177.702" stroke="#00A1FB" stroke-width="1.88275"/>
<path d="M366.089 177.246C368.252 176.571 369.459 174.27 368.783 172.106C368.108 169.943 365.807 168.737 363.644 169.412C361.48 170.087 360.274 172.388 360.949 174.551C361.624 176.715 363.925 177.921 366.089 177.246Z" stroke="#00A1FB" stroke-width="1.88275" stroke-linecap="round" stroke-linejoin="round"/>
</g>
<rect x="221.646" y="292.985" width="63.4418" height="5.90678" rx="2.95339" fill="#F5F7FC"/>
</g>
</g>
</g>
<defs>
<filter id="filter0_i_902_122" x="0.50293" y="0.502808" width="633.994" height="401.661" filterUnits="userSpaceOnUse" color-interpolation-filters="sRGB">
<feFlood flood-opacity="0" result="BackgroundImageFix"/>
<feBlend mode="normal" in="SourceGraphic" in2="BackgroundImageFix" result="shape"/>
<feColorMatrix in="SourceAlpha" type="matrix" values="0 0 0 0 0 0 0 0 0 0 0 0 0 0 0 0 0 0 127 0" result="hardAlpha"/>
<feOffset dy="1.96893"/>
<feGaussianBlur stdDeviation="1.96893"/>
<feComposite in2="hardAlpha" operator="arithmetic" k2="-1" k3="1"/>
<feColorMatrix type="matrix" values="0 0 0 0 0.880518 0 0 0 0 0.880518 0 0 0 0 0.880518 0 0 0 0.25 0"/>
<feBlend mode="normal" in2="shape" result="effect1_innerShadow_902_122"/>
</filter>
<filter id="filter1_d_902_122" x="139.597" y="-16.2384" width="355.806" height="448.178" filterUnits="userSpaceOnUse" color-interpolation-filters="sRGB">
<feFlood flood-opacity="0" result="BackgroundImageFix"/>
<feColorMatrix in="SourceAlpha" type="matrix" values="0 0 0 0 0 0 0 0 0 0 0 0 0 0 0 0 0 0 127 0" result="hardAlpha"/>
<feOffset dy="7.87571"/>
<feGaussianBlur stdDeviation="29.5339"/>
<feComposite in2="hardAlpha" operator="out"/>
<feColorMatrix type="matrix" values="0 0 0 0 0.920394 0 0 0 0 0.943138 0 0 0 0 1 0 0 0 1 0"/>
<feBlend mode="normal" in2="BackgroundImageFix" result="effect1_dropShadow_902_122"/>
<feBlend mode="normal" in="SourceGraphic" in2="effect1_dropShadow_902_122" result="shape"/>
</filter>
<clipPath id="clip0_902_122">
<rect x="0.50293" y="0.502808" width="633.994" height="399.692" rx="31.5028" fill="white"/>
</clipPath>
<clipPath id="clip1_902_122">
<rect x="298.877" y="53.6638" width="45.2853" height="45.2853" rx="22.6427" fill="white"/>
</clipPath>
<clipPath id="clip2_902_122">
<rect width="65.6563" height="65.6563" fill="white" transform="translate(357.061 188.946) rotate(15)"/>
</clipPath>
<clipPath id="clip3_902_122">
<rect width="65.6563" height="65.6563" fill="white" transform="translate(339.16 159.856) rotate(-17.3317)"/>
</clipPath>
</defs>
</svg>
